<svg version="1.1" id="Layer_1" xmlns="http://www.w3.org/2000/svg" xmlns:xlink="http://www.w3.org/1999/xlink" x="0px" y="0px"
	 width="100%" viewBox="0 0 820 200" enable-background="new 0 0 820 200" xml:space="preserve">
<path fill="#222222" opacity="1.000000" stroke="none" 
	d="
M607.000000,201.000000 
	C404.716095,201.000000 202.932190,201.000000 1.074148,201.000000 
	C1.074148,134.399170 1.074148,67.798225 1.074148,1.098640 
	C274.333313,1.098640 547.666626,1.098640 820.973633,1.098640 
	C820.973633,67.734512 820.973633,134.367264 820.973633,201.000000 
	C749.798157,201.000000 678.649048,201.000000 607.000000,201.000000 
M536.033813,136.446716 
	C534.485107,138.338547 532.776611,140.122482 531.413940,142.139954 
	C523.464905,153.908905 511.128540,149.325348 506.237732,141.154068 
	C502.298828,134.573059 500.228302,126.873772 497.114594,119.138489 
	C496.755707,119.611702 495.208191,120.714767 495.110809,121.933655 
	C494.505768,129.508438 495.273315,136.780411 499.987274,143.270477 
	C509.457092,156.308334 523.089417,157.894684 534.046631,146.653015 
	C544.267761,136.166550 550.653442,123.493980 555.831238,110.293274 
	C562.547852,93.169174 567.988342,75.545509 574.069946,58.169033 
	C574.486267,56.979496 575.602661,55.226295 576.506042,55.154606 
	C580.610962,54.828861 584.756287,55.011906 588.362000,55.011906 
	C587.823608,58.028034 587.576782,61.600788 586.527832,64.920105 
	C581.122131,82.026161 575.513123,99.068008 569.968201,116.130058 
	C569.165527,118.599983 568.326355,121.058044 567.501404,123.529381 
	C573.888916,125.274933 575.054626,120.923363 576.987000,117.668373 
	C581.900146,109.392426 586.720093,101.059563 591.767395,92.866615 
	C592.418152,91.810371 594.193542,91.446960 596.022156,90.449326 
	C594.328125,94.496063 592.782410,97.521988 591.779053,100.718163 
	C589.383301,108.349693 587.027954,116.008026 585.102112,123.766212 
	C584.290894,127.034660 586.203735,129.358780 589.833130,128.931534 
	C593.044617,128.553497 595.954346,127.376297 595.969543,122.781601 
	C594.027283,123.238930 592.688354,123.554199 590.830627,123.991623 
	C591.086426,121.765884 590.871887,119.661011 591.598389,117.957542 
	C596.237915,107.080231 601.091370,96.294289 605.858154,85.471107 
	C607.139160,82.562561 608.363586,79.629089 609.948914,75.924240 
	C595.357239,75.961243 591.015015,87.533585 583.775269,95.216866 
	C583.228271,94.931412 582.681213,94.645958 582.134216,94.360504 
	C588.292908,78.720932 594.451660,63.081352 600.667908,47.295753 
	C596.333801,47.295753 590.863892,45.678478 587.512024,47.654301 
	C581.697327,51.081860 576.403442,49.239510 571.133850,48.428028 
	C559.904785,46.698807 548.990845,43.101566 537.364075,43.926949 
	C529.224854,44.504753 523.008789,50.429432 524.006714,57.440342 
	C525.462646,67.668976 538.048462,77.553932 549.127625,76.683540 
	C547.903015,75.621605 546.987000,74.793831 546.036072,74.008453 
	C541.259644,70.063675 536.145203,66.451988 531.836792,62.050507 
	C529.817200,59.987335 527.966675,56.109440 528.512634,53.589767 
	C529.242126,50.222343 533.305542,49.698700 536.798828,49.991287 
	C541.209656,50.360729 545.653992,50.458511 550.033020,51.049904 
	C556.282043,51.893833 562.484924,53.079391 568.833130,54.140018 
	C564.092468,68.535522 560.142761,82.628578 554.797424,96.170738 
	C549.452209,109.712448 542.711243,122.703209 536.033813,136.446716 
M275.060272,135.577408 
	C284.684937,139.806641 292.159729,135.798325 292.959686,125.853676 
	C293.212708,122.708504 293.186554,119.508789 292.901398,116.369164 
	C292.796570,115.214737 291.575378,114.161690 290.863403,113.062408 
	C290.242401,114.252777 289.203766,115.403107 289.085022,116.641624 
	C288.815948,119.448151 289.382935,122.361443 288.927155,125.118423 
	C287.634949,132.934830 286.774811,134.676971 278.715973,130.931168 
	C278.281525,130.729233 277.925842,130.346054 277.553497,130.024139 
	C267.643250,121.456299 257.650391,112.981239 247.866745,104.271149 
	C243.541321,100.420334 244.276764,96.773323 249.465607,94.148338 
	C254.055634,91.826279 259.004974,90.033913 263.195923,87.139282 
	C273.439880,80.063889 283.535065,72.735611 293.281555,64.994690 
	C297.524536,61.624805 302.254730,57.869446 301.946930,49.967300 
	C299.112244,51.446838 296.799622,52.180862 295.143829,53.653427 
	C293.542786,55.077271 292.919159,57.584419 291.342865,59.054604 
	C285.459564,64.541847 279.723999,70.296867 273.248260,75.010643 
	C265.838318,80.404434 257.698944,84.796165 249.876526,89.623283 
	C251.248154,81.429466 253.570496,74.312492 255.338104,67.060303 
	C256.205231,63.502674 257.962463,62.739716 261.262360,62.906750 
	C263.802338,63.035320 266.570526,62.768429 268.878052,61.811363 
	C270.228912,61.251072 270.875336,58.992317 271.838654,57.497623 
	C270.340179,57.372292 268.838959,57.122108 267.343903,57.154594 
	C265.640137,57.191624 263.769348,58.033108 262.270782,57.565258 
	C255.554245,55.468334 248.720810,53.520741 242.341156,50.615471 
	C227.774521,43.981907 212.790375,39.570427 196.662888,41.068504 
	C181.209473,42.503967 175.993698,49.811119 179.525055,63.829586 
	C182.953629,77.440132 192.207642,87.314468 203.741806,94.789627 
	C207.471268,97.206642 211.763824,100.030380 218.172363,98.364853 
	C216.109146,96.945518 215.066696,96.027145 213.864304,95.431763 
	C198.726181,87.935982 189.676270,75.405548 184.354248,59.804115 
	C183.122803,56.194149 184.411591,53.407684 187.251099,50.932400 
	C192.185913,46.630569 198.332230,46.321510 204.190430,46.125324 
	C221.180923,45.556332 236.068604,52.789116 251.237457,59.455963 
	C248.196594,69.624397 245.107361,79.405853 242.388580,89.289215 
	C241.123367,93.888504 237.817780,92.989166 234.705811,92.864532 
	C233.177902,92.803337 231.665436,92.356232 230.145981,92.083778 
	C229.982681,92.504028 229.819382,92.924286 229.656082,93.344536 
	C232.660370,95.908882 235.664642,98.473236 239.252487,101.535690 
	C234.233765,110.461845 230.138046,119.009445 224.895004,126.783241 
	C216.481461,139.257874 203.820724,141.787872 194.706757,126.969612 
	C191.037521,121.003899 189.195419,113.914413 186.188828,106.517258 
	C185.478516,107.750275 184.116714,109.033684 184.118454,110.315239 
	C184.123535,114.055611 184.326096,117.865616 185.067795,121.523300 
	C188.794418,139.900787 210.487030,144.256805 221.719849,136.783783 
	C230.749191,130.776688 235.755356,121.754234 239.963120,112.204849 
	C241.658371,108.357513 243.156494,107.778381 246.196518,110.747345 
	C251.438858,115.867149 256.355682,121.345444 261.843994,126.179573 
	C265.682831,129.560822 270.245972,132.119812 275.060272,135.577408 
M336.452515,89.029541 
	C340.991241,85.493797 345.385437,81.535973 351.887543,83.437210 
	C350.790497,87.034042 349.781281,90.342934 348.534973,94.429138 
	C355.015930,92.214279 356.892914,87.799065 358.389221,83.133850 
	C359.572998,79.443047 357.768555,76.372719 354.177734,77.185654 
	C348.499176,78.471245 342.791138,80.396233 337.668610,83.126007 
	C333.544556,85.323723 330.268402,89.112541 325.999115,92.716171 
	C325.999115,90.224602 326.467651,88.527184 325.907959,87.298004 
	C324.449066,84.094070 323.220520,79.438049 320.657623,78.384903 
	C316.298920,76.593842 308.507141,78.669083 305.395172,84.988792 
	C303.257690,89.329514 300.481293,93.355621 297.977570,97.543976 
	C297.977570,99.059418 298.307312,101.094345 297.905792,102.972984 
	C297.173370,106.399773 295.346558,109.708466 295.215271,113.114197 
	C295.092682,116.293976 295.608917,120.474205 297.591522,122.523140 
	C300.340454,125.364082 304.815186,125.931534 308.539948,123.037659 
	C312.264191,120.144150 316.024811,117.242546 319.361298,113.932991 
	C320.618561,112.685860 320.730896,110.284485 321.365204,108.409294 
	C320.844421,108.051254 320.323669,107.693214 319.802917,107.335175 
	C318.201660,108.897026 316.568481,110.427773 315.006805,112.028267 
	C312.825470,114.263840 310.896301,116.805756 308.462311,118.709030 
	C307.253418,119.654366 304.916138,120.100014 303.550415,119.574181 
	C302.620117,119.215981 301.892822,116.687019 302.116119,115.295860 
	C302.697479,111.673706 304.117065,108.185951 304.696625,104.563683 
	C305.175262,101.571938 306.728668,101.271591 309.347687,100.873985 
	C315.315155,99.968018 322.039612,100.856743 325.451874,95.878342 
	C328.373993,98.826233 331.086823,101.825531 334.085449,104.505005 
	C336.487854,106.651718 339.277710,108.358513 341.822968,110.353233 
	C345.378815,113.139961 343.915558,115.304474 340.652191,116.672394 
	C337.423279,118.025879 333.997559,118.909607 330.659210,120.002518 
	C328.360565,120.755035 326.063599,121.512856 323.765900,122.268311 
	C323.795013,122.775803 323.824158,123.283295 323.853271,123.790794 
	C325.251404,124.193832 326.634888,124.879234 328.050079,124.952530 
	C335.368713,125.331512 341.188904,121.721100 346.258026,117.114449 
	C352.316772,111.608444 351.322601,106.357941 344.009155,102.508316 
	C342.875946,101.911842 341.624603,101.519455 340.544769,100.845444 
	C334.969788,97.365578 333.836639,94.520363 336.452515,89.029541 
M354.025574,120.881554 
	C353.665771,123.080574 354.296356,124.864639 356.779236,123.887138 
	C358.723389,123.121712 360.833679,121.693130 361.890656,119.961349 
	C365.140106,114.637169 367.696960,108.890259 370.946228,103.565956 
	C373.907166,98.714142 377.420837,94.199661 380.690857,89.536507 
	C381.176636,89.801102 381.662384,90.065689 382.148163,90.330284 
	C381.622192,91.852829 381.117371,93.383049 380.566864,94.896660 
	C377.118561,104.377754 372.154144,113.414917 372.014069,123.865051 
	C371.981720,126.279007 371.352570,129.482117 375.377136,128.920502 
	C378.672150,128.460709 382.385254,127.971863 383.238831,122.782120 
	C380.844055,123.190918 379.052399,123.496765 376.542847,123.925156 
	C377.363525,120.848900 377.725159,118.102875 378.806152,115.677460 
	C384.018799,103.982162 389.438904,92.379440 394.740082,80.723259 
	C395.228821,79.648605 395.997467,78.034271 395.564209,77.375099 
	C395.015076,76.539612 393.383026,76.139931 392.191315,76.079704 
	C390.977448,76.018349 389.432251,76.232872 388.549896,76.957283 
	C384.275940,80.466141 380.033691,84.040382 376.069702,87.889633 
	C373.797455,90.096115 372.077484,92.871346 370.108856,95.390533 
	C369.555176,95.056595 369.001495,94.722656 368.447815,94.388718 
	C374.676758,78.757484 380.905701,63.126244 387.167358,47.412888 
	C379.800201,46.591850 377.291046,48.028313 375.075348,55.186100 
	C372.473175,63.592476 370.634583,72.239510 367.925354,80.607506 
	C363.636475,93.854713 358.899109,106.956734 354.025574,120.881554 
M416.305664,122.999916 
	C422.336731,121.847435 430.500275,115.028030 431.896088,108.886894 
	C429.622650,110.592430 428.247925,111.767929 426.734772,112.724419 
	C424.578400,114.087494 422.320465,115.289894 420.105865,116.560928 
	C420.253448,114.014610 420.074188,111.397537 420.607422,108.934723 
	C422.511322,100.141861 424.650879,91.440773 429.893372,83.806923 
	C430.866608,82.389755 430.260773,79.888176 430.383728,77.887077 
	C428.539246,77.792694 426.695587,77.675888 424.850067,77.610733 
	C423.262726,77.554710 421.573547,77.901428 420.102142,77.474640 
	C413.899292,75.675514 408.183533,77.784607 404.723999,82.130730 
	C396.077179,92.993538 390.537750,105.479729 390.042053,119.684875 
	C389.890717,124.021362 392.004089,125.417557 395.994720,123.364349 
	C398.969421,121.833839 401.636139,119.559784 404.130463,117.278412 
	C407.022980,114.632881 409.576935,111.617203 412.277893,108.762222 
	C412.820770,110.904297 411.798431,112.590691 412.159119,113.894432 
	C413.014374,116.985909 408.847229,122.036041 416.305664,122.999916 
M644.104065,113.346336 
	C644.417725,112.320137 644.731323,111.293938 645.410767,109.070900 
	C640.898743,112.588982 637.552002,115.198540 634.205200,117.808105 
	C633.760254,117.466843 633.315369,117.125580 632.870422,116.784309 
	C633.247131,114.302399 633.387512,111.755974 634.044434,109.350578 
	C636.095154,101.841202 636.830750,93.959045 641.724792,87.285446 
	C643.611755,84.712402 643.725037,80.838669 644.845825,76.847458 
	C640.139282,77.229645 636.539368,78.412415 633.489075,77.580231 
	C627.540955,75.957436 622.846802,77.564606 618.966431,81.618416 
	C609.207520,91.813545 605.474854,104.810028 603.105835,118.218910 
	C602.278748,122.900383 605.217346,125.048920 609.508179,122.903313 
	C613.304321,121.005127 616.711670,118.144661 619.898865,115.274025 
	C622.292480,113.118118 624.064941,110.272491 626.113953,107.733932 
	C626.507935,110.838684 625.730469,113.428818 625.542114,116.061104 
	C625.388550,118.207214 625.181458,121.347359 626.388062,122.316788 
	C627.634888,123.318558 630.961182,122.920151 632.667664,121.921165 
	C636.550964,119.647980 639.999146,116.631561 644.104065,113.346336 
M453.972656,105.319420 
	C450.752502,108.462158 447.532349,111.604904 443.378448,115.658936 
	C444.859497,102.341362 446.145142,90.780815 447.429779,79.229477 
	C442.809540,78.806084 438.742432,78.129578 438.112946,83.242256 
	C437.693176,86.651756 437.996185,90.197266 438.342194,93.645119 
	C439.339874,103.586693 440.114288,113.455673 435.114319,122.734596 
	C434.815826,123.288490 435.224091,124.223198 435.366211,125.579475 
	C437.819885,124.481110 440.026672,123.867508 441.805939,122.636131 
	C453.522766,114.527267 462.258331,103.766281 468.328888,91.000664 
	C470.348694,86.753212 471.034912,81.809486 471.912964,77.106071 
	C472.387054,74.566414 470.241638,72.877640 468.323639,74.437424 
	C465.850037,76.448997 462.517456,78.257866 462.932526,82.657631 
	C463.758453,91.413712 458.908051,98.045929 453.972656,105.319420 
z"/>
<path fill="#FFFFFF" opacity="1.000000" stroke="none" 
	d="
M536.307983,136.191101 
	C542.711243,122.703209 549.452209,109.712448 554.797424,96.170738 
	C560.142761,82.628578 564.092468,68.535522 568.833130,54.140018 
	C562.484924,53.079391 556.282043,51.893833 550.033020,51.049904 
	C545.653992,50.458511 541.209656,50.360729 536.798828,49.991287 
	C533.305542,49.698700 529.242126,50.222343 528.512634,53.589767 
	C527.966675,56.109440 529.817200,59.987335 531.836792,62.050507 
	C536.145203,66.451988 541.259644,70.063675 546.036072,74.008453 
	C546.987000,74.793831 547.903015,75.621605 549.127625,76.683540 
	C538.048462,77.553932 525.462646,67.668976 524.006714,57.440342 
	C523.008789,50.429432 529.224854,44.504753 537.364075,43.926949 
	C548.990845,43.101566 559.904785,46.698807 571.133850,48.428028 
	C576.403442,49.239510 581.697327,51.081860 587.512024,47.654301 
	C590.863892,45.678478 596.333801,47.295753 600.667908,47.295753 
	C594.451660,63.081352 588.292908,78.720932 582.134216,94.360504 
	C582.681213,94.645958 583.228271,94.931412 583.775269,95.216866 
	C591.015015,87.533585 595.357239,75.961243 609.948914,75.924240 
	C608.363586,79.629089 607.139160,82.562561 605.858154,85.471107 
	C601.091370,96.294289 596.237915,107.080231 591.598389,117.957542 
	C590.871887,119.661011 591.086426,121.765884 590.830627,123.991623 
	C592.688354,123.554199 594.027283,123.238930 595.969543,122.781601 
	C595.954346,127.376297 593.044617,128.553497 589.833130,128.931534 
	C586.203735,129.358780 584.290894,127.034660 585.102112,123.766212 
	C587.027954,116.008026 589.383301,108.349693 591.779053,100.718163 
	C592.782410,97.521988 594.328125,94.496063 596.022156,90.449326 
	C594.193542,91.446960 592.418152,91.810371 591.767395,92.866615 
	C586.720093,101.059563 581.900146,109.392426 576.987000,117.668373 
	C575.054626,120.923363 573.888916,125.274933 567.501404,123.529381 
	C568.326355,121.058044 569.165527,118.599983 569.968201,116.130058 
	C575.513123,99.068008 581.122131,82.026161 586.527832,64.920105 
	C587.576782,61.600788 587.823608,58.028034 588.362000,55.011906 
	C584.756287,55.011906 580.610962,54.828861 576.506042,55.154606 
	C575.602661,55.226295 574.486267,56.979496 574.069946,58.169033 
	C567.988342,75.545509 562.547852,93.169174 555.831238,110.293274 
	C550.653442,123.493980 544.267761,136.166550 534.046631,146.653015 
	C523.089417,157.894684 509.457092,156.308334 499.987274,143.270477 
	C495.273315,136.780411 494.505768,129.508438 495.110809,121.933655 
	C495.208191,120.714767 496.755707,119.611702 497.114594,119.138489 
	C500.228302,126.873772 502.298828,134.573059 506.237732,141.154068 
	C511.128540,149.325348 523.464905,153.908905 531.413940,142.139954 
	C532.776611,140.122482 534.485107,138.338547 536.307983,136.191101 
z"/>
<path fill="#FFFFFF" opacity="1.000000" stroke="none" 
	d="
M274.772949,135.311737 
	C270.245972,132.119812 265.682831,129.560822 261.843994,126.179573 
	C256.355682,121.345444 251.438858,115.867149 246.196518,110.747345 
	C243.156494,107.778381 241.658371,108.357513 239.963120,112.204849 
	C235.755356,121.754234 230.749191,130.776688 221.719849,136.783783 
	C210.487030,144.256805 188.794418,139.900787 185.067795,121.523300 
	C184.326096,117.865616 184.123535,114.055611 184.118454,110.315239 
	C184.116714,109.033684 185.478516,107.750275 186.188828,106.517258 
	C189.195419,113.914413 191.037521,121.003899 194.706757,126.969612 
	C203.820724,141.787872 216.481461,139.257874 224.895004,126.783241 
	C230.138046,119.009445 234.233765,110.461845 239.252487,101.535690 
	C235.664642,98.473236 232.660370,95.908882 229.656082,93.344536 
	C229.819382,92.924286 229.982681,92.504028 230.145981,92.083778 
	C231.665436,92.356232 233.177902,92.803337 234.705811,92.864532 
	C237.817780,92.989166 241.123367,93.888504 242.388580,89.289215 
	C245.107361,79.405853 248.196594,69.624397 251.237457,59.455963 
	C236.068604,52.789116 221.180923,45.556332 204.190430,46.125324 
	C198.332230,46.321510 192.185913,46.630569 187.251099,50.932400 
	C184.411591,53.407684 183.122803,56.194149 184.354248,59.804115 
	C189.676270,75.405548 198.726181,87.935982 213.864304,95.431763 
	C215.066696,96.027145 216.109146,96.945518 218.172363,98.364853 
	C211.763824,100.030380 207.471268,97.206642 203.741806,94.789627 
	C192.207642,87.314468 182.953629,77.440132 179.525055,63.829586 
	C175.993698,49.811119 181.209473,42.503967 196.662888,41.068504 
	C212.790375,39.570427 227.774521,43.981907 242.341156,50.615471 
	C248.720810,53.520741 255.554245,55.468334 262.270782,57.565258 
	C263.769348,58.033108 265.640137,57.191624 267.343903,57.154594 
	C268.838959,57.122108 270.340179,57.372292 271.838654,57.497627 
	C270.875336,58.992317 270.228912,61.251072 268.878052,61.811363 
	C266.570526,62.768429 263.802338,63.035320 261.262360,62.906750 
	C257.962463,62.739716 256.205231,63.502674 255.338104,67.060303 
	C253.570496,74.312492 251.248154,81.429466 249.876526,89.623283 
	C257.698944,84.796165 265.838318,80.404434 273.248260,75.010643 
	C279.723999,70.296867 285.459564,64.541847 291.342865,59.054604 
	C292.919159,57.584419 293.542786,55.077271 295.143829,53.653427 
	C296.799622,52.180862 299.112244,51.446838 301.946930,49.967300 
	C302.254730,57.869446 297.524536,61.624805 293.281555,64.994690 
	C283.535065,72.735611 273.439880,80.063889 263.195923,87.139282 
	C259.004974,90.033913 254.055634,91.826279 249.465607,94.148338 
	C244.276764,96.773323 243.541321,100.420334 247.866745,104.271149 
	C257.650391,112.981239 267.643250,121.456299 277.553497,130.024139 
	C277.925842,130.346054 278.281525,130.729233 278.715973,130.931168 
	C286.774811,134.676971 287.634949,132.934830 288.927155,125.118423 
	C289.382935,122.361443 288.815948,119.448151 289.085022,116.641624 
	C289.203766,115.403107 290.242401,114.252777 290.863403,113.062408 
	C291.575378,114.161690 292.796570,115.214737 292.901398,116.369164 
	C293.186554,119.508789 293.212708,122.708504 292.959686,125.853676 
	C292.159729,135.798325 284.684937,139.806641 274.772949,135.311737 
z"/>
<path fill="#FFFFFF" opacity="1.000000" stroke="none" 
	d="
M336.202179,89.304008 
	C333.836639,94.520363 334.969788,97.365578 340.544769,100.845444 
	C341.624603,101.519455 342.875946,101.911842 344.009155,102.508316 
	C351.322601,106.357941 352.316772,111.608444 346.258026,117.114449 
	C341.188904,121.721100 335.368713,125.331512 328.050079,124.952530 
	C326.634888,124.879234 325.251404,124.193832 323.853271,123.790794 
	C323.824158,123.283295 323.795013,122.775803 323.765900,122.268311 
	C326.063599,121.512856 328.360565,120.755035 330.659210,120.002518 
	C333.997559,118.909607 337.423279,118.025879 340.652191,116.672394 
	C343.915558,115.304474 345.378815,113.139961 341.822968,110.353233 
	C339.277710,108.358513 336.487854,106.651718 334.085449,104.505005 
	C331.086823,101.825531 328.373993,98.826233 325.451874,95.878342 
	C322.039612,100.856743 315.315155,99.968018 309.347687,100.873985 
	C306.728668,101.271591 305.175262,101.571938 304.696625,104.563683 
	C304.117065,108.185951 302.697479,111.673706 302.116119,115.295860 
	C301.892822,116.687019 302.620117,119.215981 303.550415,119.574181 
	C304.916138,120.100014 307.253418,119.654366 308.462311,118.709030 
	C310.896301,116.805756 312.825470,114.263840 315.006805,112.028267 
	C316.568481,110.427773 318.201660,108.897026 319.802917,107.335175 
	C320.323669,107.693214 320.844421,108.051254 321.365204,108.409294 
	C320.730896,110.284485 320.618561,112.685860 319.361298,113.932991 
	C316.024811,117.242546 312.264191,120.144150 308.539948,123.037659 
	C304.815186,125.931534 300.340454,125.364082 297.591522,122.523140 
	C295.608917,120.474205 295.092682,116.293976 295.215271,113.114197 
	C295.346558,109.708466 297.173370,106.399773 297.905792,102.972984 
	C298.307312,101.094345 297.977570,99.059418 297.977570,97.543976 
	C300.481293,93.355621 303.257690,89.329514 305.395172,84.988792 
	C308.507141,78.669083 316.298920,76.593842 320.657623,78.384903 
	C323.220520,79.438049 324.449066,84.094070 325.907959,87.298004 
	C326.467651,88.527184 325.999115,90.224602 325.999115,92.716171 
	C330.268402,89.112541 333.544556,85.323723 337.668610,83.126007 
	C342.791138,80.396233 348.499176,78.471245 354.177734,77.185654 
	C357.768555,76.372719 359.572998,79.443047 358.389221,83.133850 
	C356.892914,87.799065 355.015930,92.214279 348.534973,94.429138 
	C349.781281,90.342934 350.790497,87.034042 351.887543,83.437210 
	C345.385437,81.535973 340.991241,85.493797 336.202179,89.304008 
M313.551575,85.966850 
	C311.558685,89.025703 309.565826,92.084557 307.572937,95.143417 
	C307.793976,95.616524 308.015045,96.089630 308.236084,96.562737 
	C311.239594,96.142365 314.373779,96.121628 317.211365,95.193771 
	C320.299469,94.183990 321.128052,89.138359 318.695221,85.678047 
	C318.141235,84.890152 315.659851,85.457413 313.551575,85.966850 
z"/>
<path fill="#FFFFFF" opacity="1.000000" stroke="none" 
	d="
M354.188538,120.500870 
	C358.899109,106.956734 363.636475,93.854713 367.925354,80.607506 
	C370.634583,72.239510 372.473175,63.592476 375.075348,55.186100 
	C377.291046,48.028313 379.800201,46.591850 387.167358,47.412888 
	C380.905701,63.126244 374.676758,78.757484 368.447815,94.388718 
	C369.001495,94.722656 369.555176,95.056595 370.108856,95.390533 
	C372.077484,92.871346 373.797455,90.096115 376.069702,87.889633 
	C380.033691,84.040382 384.275940,80.466141 388.549896,76.957283 
	C389.432251,76.232872 390.977448,76.018349 392.191315,76.079704 
	C393.383026,76.139931 395.015076,76.539612 395.564209,77.375099 
	C395.997467,78.034271 395.228821,79.648605 394.740082,80.723259 
	C389.438904,92.379440 384.018799,103.982162 378.806152,115.677460 
	C377.725159,118.102875 377.363525,120.848900 376.542847,123.925156 
	C379.052399,123.496765 380.844055,123.190918 383.238831,122.782120 
	C382.385254,127.971863 378.672150,128.460709 375.377136,128.920502 
	C371.352570,129.482117 371.981720,126.279007 372.014069,123.865051 
	C372.154144,113.414917 377.118561,104.377754 380.566864,94.896660 
	C381.117371,93.383049 381.622192,91.852829 382.148163,90.330284 
	C381.662384,90.065689 381.176636,89.801102 380.690857,89.536507 
	C377.420837,94.199661 373.907166,98.714142 370.946228,103.565956 
	C367.696960,108.890259 365.140106,114.637169 361.890656,119.961349 
	C360.833679,121.693130 358.723389,123.121712 356.779236,123.887138 
	C354.296356,124.864639 353.665771,123.080574 354.188538,120.500870 
z"/>
<path fill="#FFFFFF" opacity="1.000000" stroke="none" 
	d="
M415.878845,122.999825 
	C408.847229,122.036041 413.014374,116.985909 412.159119,113.894432 
	C411.798431,112.590691 412.820770,110.904297 412.277893,108.762222 
	C409.576935,111.617203 407.022980,114.632881 404.130463,117.278412 
	C401.636139,119.559784 398.969421,121.833839 395.994720,123.364349 
	C392.004089,125.417557 389.890717,124.021362 390.042053,119.684875 
	C390.537750,105.479729 396.077179,92.993538 404.723999,82.130730 
	C408.183533,77.784607 413.899292,75.675514 420.102142,77.474640 
	C421.573547,77.901428 423.262726,77.554710 424.850067,77.610733 
	C426.695587,77.675888 428.539246,77.792694 430.383728,77.887077 
	C430.260773,79.888176 430.866608,82.389755 429.893372,83.806923 
	C424.650879,91.440773 422.511322,100.141861 420.607422,108.934723 
	C420.074188,111.397537 420.253448,114.014610 420.105896,116.560928 
	C422.320465,115.289894 424.578400,114.087494 426.734772,112.724419 
	C428.247925,111.767929 429.622650,110.592430 431.896088,108.886894 
	C430.500275,115.028030 422.336731,121.847435 415.878845,122.999825 
M408.447418,106.039749 
	C415.525726,99.636871 418.545349,90.944557 422.358154,82.112556 
	C417.355927,82.381531 412.314789,79.983810 409.510590,85.967026 
	C405.450928,94.629028 401.112457,103.161293 397.126068,111.855812 
	C396.478607,113.267960 397.035095,115.232109 397.035095,116.941116 
	C397.463928,117.106102 397.892761,117.271088 398.321564,117.436081 
	C401.558319,113.835419 404.795074,110.234756 408.447418,106.039749 
z"/>
<path fill="#FFFFFF" opacity="1.000000" stroke="none" 
	d="
M643.864136,113.631752 
	C639.999146,116.631561 636.550964,119.647980 632.667664,121.921165 
	C630.961182,122.920151 627.634888,123.318558 626.388062,122.316788 
	C625.181458,121.347359 625.388550,118.207214 625.542114,116.061104 
	C625.730469,113.428818 626.507935,110.838684 626.113953,107.733932 
	C624.064941,110.272491 622.292480,113.118118 619.898865,115.274025 
	C616.711670,118.144661 613.304321,121.005127 609.508179,122.903313 
	C605.217346,125.048920 602.278748,122.900383 603.105835,118.218910 
	C605.474854,104.810028 609.207520,91.813545 618.966431,81.618416 
	C622.846802,77.564606 627.540955,75.957436 633.489075,77.580231 
	C636.539368,78.412415 640.139282,77.229645 644.845825,76.847458 
	C643.725037,80.838669 643.611755,84.712402 641.724792,87.285446 
	C636.830750,93.959045 636.095154,101.841202 634.044434,109.350578 
	C633.387512,111.755974 633.247131,114.302399 632.870422,116.784309 
	C633.315369,117.125580 633.760254,117.466843 634.205200,117.808105 
	C637.552002,115.198540 640.898743,112.588982 645.410767,109.070900 
	C644.731323,111.293938 644.417725,112.320137 643.864136,113.631752 
M611.647644,116.036392 
	C612.893433,115.387856 614.395020,114.992172 615.335022,114.041336 
	C617.739868,111.608704 619.928528,108.957565 622.143127,106.342499 
	C628.096985,99.311852 632.648193,91.525337 635.193542,82.558250 
	C626.872864,80.892403 625.976746,80.903549 622.025452,87.644218 
	C618.248962,94.086632 615.060608,100.912308 612.118591,107.785629 
	C611.014771,110.364578 611.332825,113.552132 611.647644,116.036392 
z"/>
<path fill="#FFFFFF" opacity="1.000000" stroke="none" 
	d="
M454.004700,104.954147 
	C458.908051,98.045929 463.758453,91.413712 462.932526,82.657631 
	C462.517456,78.257866 465.850037,76.448997 468.323639,74.437424 
	C470.241638,72.877640 472.387054,74.566414 471.912964,77.106071 
	C471.034912,81.809486 470.348694,86.753212 468.328888,91.000664 
	C462.258331,103.766281 453.522766,114.527267 441.805939,122.636131 
	C440.026672,123.867508 437.819885,124.481110 435.366211,125.579475 
	C435.224091,124.223198 434.815826,123.288490 435.114319,122.734596 
	C440.114288,113.455673 439.339874,103.586693 438.342194,93.645119 
	C437.996185,90.197266 437.693176,86.651756 438.112946,83.242256 
	C438.742432,78.129578 442.809540,78.806084 447.429779,79.229477 
	C446.145142,90.780815 444.859497,102.341362 443.378448,115.658936 
	C447.532349,111.604904 450.752502,108.462158 454.004700,104.954147 
z"/>
<path fill="#000000" opacity="1.000000" stroke="none" 
	d="
M313.808594,85.683891 
	C315.659851,85.457413 318.141235,84.890152 318.695221,85.678047 
	C321.128052,89.138359 320.299469,94.183990 317.211365,95.193771 
	C314.373779,96.121628 311.239594,96.142365 308.236084,96.562737 
	C308.015045,96.089630 307.793976,95.616524 307.572937,95.143417 
	C309.565826,92.084557 311.558685,89.025703 313.808594,85.683891 
z"/>
<path fill="#000000" opacity="1.000000" stroke="none" 
	d="
M408.239624,106.336922 
	C404.795074,110.234756 401.558319,113.835419 398.321564,117.436081 
	C397.892761,117.271088 397.463928,117.106102 397.035095,116.941116 
	C397.035095,115.232109 396.478607,113.267960 397.126068,111.855812 
	C401.112457,103.161293 405.450928,94.629028 409.510590,85.967026 
	C412.314789,79.983810 417.355927,82.381531 422.358154,82.112556 
	C418.545349,90.944557 415.525726,99.636871 408.239624,106.336922 
z"/>
<path fill="#000000" opacity="1.000000" stroke="none" 
	d="
M611.325134,116.249298 
	C611.332825,113.552132 611.014771,110.364578 612.118591,107.785629 
	C615.060608,100.912308 618.248962,94.086632 622.025452,87.644218 
	C625.976746,80.903549 626.872864,80.892403 635.193542,82.558250 
	C632.648193,91.525337 628.096985,99.311852 622.143127,106.342499 
	C619.928528,108.957565 617.739868,111.608704 615.335022,114.041336 
	C614.395020,114.992172 612.893433,115.387856 611.325134,116.249298 
z"/>
</svg>